<svg width="470" height="180" viewBox="0 0 470 180" fill="none" xmlns="http://www.w3.org/2000/svg">
<path fill-rule="evenodd" clip-rule="evenodd" d="M0 0V180H470V0H0Z" fill="#F5F5F5"/>
<path d="M32.1797 19.8594H28.5234V30H27.0312V19.8594H23.3828V18.625H32.1797V19.8594ZM36.5172 30.1562C35.3714 30.1562 34.4391 29.7812 33.7203 29.0312C33.0016 28.276 32.6422 27.2682 32.6422 26.0078V25.7422C32.6422 24.9036 32.801 24.1562 33.1187 23.5C33.4417 22.8385 33.8896 22.3229 34.4625 21.9531C35.0406 21.5781 35.6656 21.3906 36.3375 21.3906C37.4365 21.3906 38.2906 21.7526 38.9 22.4766C39.5094 23.2005 39.8141 24.237 39.8141 25.5859V26.1875H34.0875C34.1083 27.0208 34.3505 27.6953 34.8141 28.2109C35.2828 28.7214 35.8766 28.9766 36.5953 28.9766C37.1057 28.9766 37.538 28.8724 37.8922 28.6641C38.2464 28.4557 38.5562 28.1797 38.8219 27.8359L39.7047 28.5234C38.9964 29.612 37.9339 30.1562 36.5172 30.1562ZM36.3375 22.5781C35.7542 22.5781 35.2646 22.7917 34.8687 23.2188C34.4729 23.6406 34.2281 24.2344 34.1344 25H38.3687V24.8906C38.3271 24.1562 38.1292 23.5885 37.775 23.1875C37.4208 22.7812 36.9417 22.5781 36.3375 22.5781ZM43.2141 30H41.7687V18H43.2141V30ZM47.2547 30H45.8094V18H47.2547V30ZM59.0625 29.1641C58.5 29.8255 57.6745 30.1562 56.5859 30.1562C55.6849 30.1562 54.9974 29.8958 54.5234 29.375C54.0547 28.849 53.8177 28.0729 53.8125 27.0469V21.5469H55.2578V27.0078C55.2578 28.2891 55.7786 28.9297 56.8203 28.9297C57.9245 28.9297 58.6589 28.5182 59.0234 27.6953V21.5469H60.4688V30H59.0938L59.0625 29.1641ZM67.7438 27.7578C67.7438 27.3672 67.5953 27.0651 67.2984 26.8516C67.0068 26.6328 66.4938 26.4453 65.7594 26.2891C65.0302 26.1328 64.4495 25.9453 64.0172 25.7266C63.5901 25.5078 63.2724 25.2474 63.0641 24.9453C62.8609 24.6432 62.7594 24.2839 62.7594 23.8672C62.7594 23.1745 63.051 22.5885 63.6344 22.1094C64.2229 21.6302 64.9729 21.3906 65.8844 21.3906C66.8427 21.3906 67.6188 21.638 68.2125 22.1328C68.8115 22.6276 69.1109 23.2604 69.1109 24.0312H67.6578C67.6578 23.6354 67.4885 23.2943 67.15 23.0078C66.8167 22.7214 66.3948 22.5781 65.8844 22.5781C65.3583 22.5781 64.9469 22.6927 64.65 22.9219C64.3531 23.151 64.2047 23.4505 64.2047 23.8203C64.2047 24.1693 64.3427 24.4323 64.6188 24.6094C64.8948 24.7865 65.3922 24.9557 66.1109 25.1172C66.8349 25.2786 67.4208 25.4714 67.8688 25.6953C68.3167 25.9193 68.6474 26.1901 68.8609 26.5078C69.0797 26.8203 69.1891 27.2031 69.1891 27.6562C69.1891 28.4115 68.887 29.0182 68.2828 29.4766C67.6786 29.9297 66.8948 30.1562 65.9313 30.1562C65.2542 30.1562 64.6552 30.0365 64.1344 29.7969C63.6135 29.5573 63.2047 29.224 62.9078 28.7969C62.6161 28.3646 62.4703 27.8984 62.4703 27.3984H63.9156C63.9417 27.8828 64.1344 28.2682 64.4938 28.5547C64.8583 28.8359 65.3375 28.9766 65.9313 28.9766C66.4781 28.9766 66.9156 28.8672 67.2438 28.6484C67.5771 28.4245 67.7438 28.1276 67.7438 27.7578ZM80.5594 30C80.476 29.8333 80.4083 29.5365 80.3563 29.1094C79.6844 29.8073 78.8823 30.1562 77.95 30.1562C77.1167 30.1562 76.4318 29.9219 75.8953 29.4531C75.3641 28.9792 75.0984 28.3802 75.0984 27.6562C75.0984 26.776 75.4318 26.0938 76.0984 25.6094C76.7703 25.1198 77.713 24.875 78.9266 24.875H80.3328V24.2109C80.3328 23.7057 80.1818 23.3047 79.8797 23.0078C79.5776 22.7057 79.1323 22.5547 78.5438 22.5547C78.0281 22.5547 77.5958 22.6849 77.2469 22.9453C76.8979 23.2057 76.7234 23.5208 76.7234 23.8906H75.2703C75.2703 23.4688 75.4188 23.0625 75.7156 22.6719C76.0177 22.276 76.424 21.9635 76.9344 21.7344C77.45 21.5052 78.0151 21.3906 78.6297 21.3906C79.6036 21.3906 80.3667 21.6354 80.9188 22.125C81.4708 22.6094 81.7573 23.2786 81.7781 24.1328V28.0234C81.7781 28.7995 81.8771 29.4167 82.075 29.875V30H80.5594ZM78.1609 28.8984C78.6141 28.8984 79.0438 28.7812 79.45 28.5469C79.8563 28.3125 80.1505 28.0078 80.3328 27.6328V25.8984H79.2C77.4292 25.8984 76.5438 26.4167 76.5438 27.4531C76.5438 27.9062 76.6948 28.2604 76.9969 28.5156C77.299 28.7708 77.687 28.8984 78.1609 28.8984ZM91.35 25.8672C91.35 27.1589 91.0531 28.1979 90.4594 28.9844C89.8656 29.7656 89.0687 30.1562 88.0687 30.1562C87.001 30.1562 86.1755 29.7786 85.5922 29.0234L85.5219 30H84.1937V18H85.6391V22.4766C86.2224 21.7526 87.0271 21.3906 88.0531 21.3906C89.0792 21.3906 89.8839 21.7786 90.4672 22.5547C91.0557 23.3307 91.35 24.3932 91.35 25.7422V25.8672ZM89.9047 25.7031C89.9047 24.7188 89.7146 23.9583 89.3344 23.4219C88.9542 22.8854 88.4073 22.6172 87.6937 22.6172C86.7406 22.6172 86.0557 23.0599 85.6391 23.9453V27.6016C86.0818 28.487 86.7719 28.9297 87.7094 28.9297C88.4021 28.9297 88.9411 28.6615 89.3266 28.125C89.712 27.5885 89.9047 26.7812 89.9047 25.7031ZM92.9453 25.6953C92.9453 24.8672 93.1068 24.1224 93.4297 23.4609C93.7578 22.7995 94.2109 22.2891 94.7891 21.9297C95.3724 21.5703 96.0365 21.3906 96.7812 21.3906C97.9323 21.3906 98.862 21.7891 99.5703 22.5859C100.284 23.3828 100.641 24.4427 100.641 25.7656V25.8672C100.641 26.6901 100.482 27.4297 100.164 28.0859C99.8516 28.737 99.401 29.2448 98.8125 29.6094C98.2292 29.974 97.5573 30.1562 96.7969 30.1562C95.651 30.1562 94.7214 29.7578 94.0078 28.9609C93.2995 28.1641 92.9453 27.1094 92.9453 25.7969V25.6953ZM94.3984 25.8672C94.3984 26.8047 94.6146 27.5573 95.0469 28.125C95.4844 28.6927 96.0677 28.9766 96.7969 28.9766C97.5312 28.9766 98.1146 28.6901 98.5469 28.1172C98.9792 27.5391 99.1953 26.7318 99.1953 25.6953C99.1953 24.7682 98.974 24.0182 98.5312 23.4453C98.0938 22.8672 97.5104 22.5781 96.7812 22.5781C96.0677 22.5781 95.4922 22.862 95.0547 23.4297C94.6172 23.9974 94.3984 24.8099 94.3984 25.8672ZM107.822 29.1641C107.259 29.8255 106.434 30.1562 105.345 30.1562C104.444 30.1562 103.757 29.8958 103.283 29.375C102.814 28.849 102.577 28.0729 102.572 27.0469V21.5469H104.017V27.0078C104.017 28.2891 104.538 28.9297 105.58 28.9297C106.684 28.9297 107.418 28.5182 107.783 27.6953V21.5469H109.228V30H107.853L107.822 29.1641ZM113.542 19.5V21.5469H115.12V22.6641H113.542V27.9062C113.542 28.2448 113.613 28.5 113.753 28.6719C113.894 28.8385 114.133 28.9219 114.472 28.9219C114.639 28.9219 114.868 28.8906 115.159 28.8281V30C114.779 30.1042 114.409 30.1562 114.05 30.1562C113.404 30.1562 112.917 29.9609 112.589 29.5703C112.261 29.1797 112.097 28.625 112.097 27.9062V22.6641H110.558V21.5469H112.097V19.5H113.542ZM123.045 19.5V21.5469H124.623V22.6641H123.045V27.9062C123.045 28.2448 123.116 28.5 123.256 28.6719C123.397 28.8385 123.636 28.9219 123.975 28.9219C124.142 28.9219 124.371 28.8906 124.662 28.8281V30C124.282 30.1042 123.912 30.1562 123.553 30.1562C122.907 30.1562 122.42 29.9609 122.092 29.5703C121.764 29.1797 121.6 28.625 121.6 27.9062V22.6641H120.061V21.5469H121.6V19.5H123.045ZM127.914 22.5703C128.555 21.7839 129.388 21.3906 130.414 21.3906C132.201 21.3906 133.102 22.3984 133.117 24.4141V30H131.672V24.4062C131.667 23.7969 131.526 23.3464 131.25 23.0547C130.979 22.763 130.555 22.6172 129.977 22.6172C129.508 22.6172 129.096 22.7422 128.742 22.9922C128.388 23.2422 128.112 23.5703 127.914 23.9766V30H126.469V18H127.914V22.5703ZM138.939 30.1562C137.793 30.1562 136.861 29.7812 136.142 29.0312C135.423 28.276 135.064 27.2682 135.064 26.0078V25.7422C135.064 24.9036 135.223 24.1562 135.541 23.5C135.864 22.8385 136.311 22.3229 136.884 21.9531C137.463 21.5781 138.088 21.3906 138.759 21.3906C139.858 21.3906 140.713 21.7526 141.322 22.4766C141.931 23.2005 142.236 24.237 142.236 25.5859V26.1875H136.509C136.53 27.0208 136.772 27.6953 137.236 28.2109C137.705 28.7214 138.298 28.9766 139.017 28.9766C139.528 28.9766 139.96 28.8724 140.314 28.6641C140.668 28.4557 140.978 28.1797 141.244 27.8359L142.127 28.5234C141.418 29.612 140.356 30.1562 138.939 30.1562ZM138.759 22.5781C138.176 22.5781 137.686 22.7917 137.291 23.2188C136.895 23.6406 136.65 24.2344 136.556 25H140.791V24.8906C140.749 24.1562 140.551 23.5885 140.197 23.1875C139.843 22.7812 139.364 22.5781 138.759 22.5781ZM151.575 28.9766C152.091 28.9766 152.541 28.8203 152.927 28.5078C153.312 28.1953 153.526 27.8047 153.567 27.3359H154.934C154.908 27.8203 154.742 28.2812 154.434 28.7188C154.127 29.1562 153.716 29.5052 153.2 29.7656C152.69 30.026 152.148 30.1562 151.575 30.1562C150.424 30.1562 149.507 29.7734 148.825 29.0078C148.148 28.237 147.809 27.1849 147.809 25.8516V25.6094C147.809 24.7865 147.96 24.0547 148.262 23.4141C148.565 22.7734 148.997 22.276 149.559 21.9219C150.127 21.5677 150.796 21.3906 151.567 21.3906C152.515 21.3906 153.302 21.6745 153.927 22.2422C154.557 22.8099 154.893 23.5469 154.934 24.4531H153.567C153.526 23.9062 153.317 23.4583 152.942 23.1094C152.572 22.7552 152.114 22.5781 151.567 22.5781C150.833 22.5781 150.262 22.8438 149.856 23.375C149.455 23.901 149.255 24.6641 149.255 25.6641V25.9375C149.255 26.9115 149.455 27.6615 149.856 28.1875C150.257 28.7135 150.83 28.9766 151.575 28.9766ZM161.928 30C161.845 29.8333 161.777 29.5365 161.725 29.1094C161.053 29.8073 160.251 30.1562 159.319 30.1562C158.485 30.1562 157.801 29.9219 157.264 29.4531C156.733 28.9792 156.467 28.3802 156.467 27.6562C156.467 26.776 156.801 26.0938 157.467 25.6094C158.139 25.1198 159.082 24.875 160.295 24.875H161.702V24.2109C161.702 23.7057 161.551 23.3047 161.248 23.0078C160.946 22.7057 160.501 22.5547 159.913 22.5547C159.397 22.5547 158.965 22.6849 158.616 22.9453C158.267 23.2057 158.092 23.5208 158.092 23.8906H156.639C156.639 23.4688 156.788 23.0625 157.084 22.6719C157.386 22.276 157.793 21.9635 158.303 21.7344C158.819 21.5052 159.384 21.3906 159.998 21.3906C160.972 21.3906 161.735 21.6354 162.288 22.125C162.84 22.6094 163.126 23.2786 163.147 24.1328V28.0234C163.147 28.7995 163.246 29.4167 163.444 29.875V30H161.928ZM159.53 28.8984C159.983 28.8984 160.413 28.7812 160.819 28.5469C161.225 28.3125 161.519 28.0078 161.702 27.6328V25.8984H160.569C158.798 25.8984 157.913 26.4167 157.913 27.4531C157.913 27.9062 158.064 28.2604 158.366 28.5156C158.668 28.7708 159.056 28.8984 159.53 28.8984ZM169.648 22.8438C169.43 22.8073 169.193 22.7891 168.938 22.7891C167.99 22.7891 167.346 23.1927 167.008 24V30H165.562V21.5469H166.969L166.992 22.5234C167.466 21.7682 168.138 21.3906 169.008 21.3906C169.289 21.3906 169.503 21.4271 169.648 21.5V22.8438ZM176.62 21.5469L176.667 22.6094C177.313 21.7969 178.157 21.3906 179.198 21.3906C180.985 21.3906 181.886 22.3984 181.902 24.4141V30H180.456V24.4062C180.451 23.7969 180.31 23.3464 180.034 23.0547C179.764 22.763 179.339 22.6172 178.761 22.6172C178.292 22.6172 177.881 22.7422 177.527 22.9922C177.172 23.2422 176.896 23.5703 176.698 23.9766V30H175.253V21.5469H176.62ZM187.739 30.1562C186.593 30.1562 185.661 29.7812 184.942 29.0312C184.223 28.276 183.864 27.2682 183.864 26.0078V25.7422C183.864 24.9036 184.023 24.1562 184.341 23.5C184.664 22.8385 185.111 22.3229 185.684 21.9531C186.262 21.5781 186.887 21.3906 187.559 21.3906C188.658 21.3906 189.512 21.7526 190.122 22.4766C190.731 23.2005 191.036 24.237 191.036 25.5859V26.1875H185.309C185.33 27.0208 185.572 27.6953 186.036 28.2109C186.505 28.7214 187.098 28.9766 187.817 28.9766C188.328 28.9766 188.76 28.8724 189.114 28.6641C189.468 28.4557 189.778 28.1797 190.044 27.8359L190.927 28.5234C190.218 29.612 189.156 30.1562 187.739 30.1562ZM187.559 22.5781C186.976 22.5781 186.486 22.7917 186.091 23.2188C185.695 23.6406 185.45 24.2344 185.356 25H189.591V24.8906C189.549 24.1562 189.351 23.5885 188.997 23.1875C188.643 22.7812 188.164 22.5781 187.559 22.5781ZM196.373 30.1562C195.228 30.1562 194.295 29.7812 193.577 29.0312C192.858 28.276 192.498 27.2682 192.498 26.0078V25.7422C192.498 24.9036 192.657 24.1562 192.975 23.5C193.298 22.8385 193.746 22.3229 194.319 21.9531C194.897 21.5781 195.522 21.3906 196.194 21.3906C197.293 21.3906 198.147 21.7526 198.756 22.4766C199.366 23.2005 199.67 24.237 199.67 25.5859V26.1875H193.944C193.965 27.0208 194.207 27.6953 194.67 28.2109C195.139 28.7214 195.733 28.9766 196.452 28.9766C196.962 28.9766 197.394 28.8724 197.748 28.6641C198.103 28.4557 198.413 28.1797 198.678 27.8359L199.561 28.5234C198.853 29.612 197.79 30.1562 196.373 30.1562ZM196.194 22.5781C195.61 22.5781 195.121 22.7917 194.725 23.2188C194.329 23.6406 194.084 24.2344 193.991 25H198.225V24.8906C198.183 24.1562 197.985 23.5885 197.631 23.1875C197.277 22.7812 196.798 22.5781 196.194 22.5781ZM201.148 25.7031C201.148 24.4062 201.456 23.3646 202.07 22.5781C202.685 21.7865 203.49 21.3906 204.484 21.3906C205.474 21.3906 206.258 21.7292 206.836 22.4062V18H208.281V30H206.953L206.883 29.0938C206.305 29.8021 205.5 30.1562 204.469 30.1562C203.49 30.1562 202.69 29.7552 202.07 28.9531C201.456 28.151 201.148 27.1042 201.148 25.8125V25.7031ZM202.594 25.8672C202.594 26.8255 202.792 27.5755 203.188 28.1172C203.583 28.6589 204.13 28.9297 204.828 28.9297C205.745 28.9297 206.414 28.5182 206.836 27.6953V23.8125C206.404 23.0156 205.74 22.6172 204.844 22.6172C204.135 22.6172 203.583 22.8906 203.188 23.4375C202.792 23.9844 202.594 24.7943 202.594 25.8672ZM212.252 30H210.806V21.5469H212.252V30ZM210.689 19.3047C210.689 19.0703 210.759 18.8724 210.9 18.7109C211.046 18.5495 211.259 18.4688 211.541 18.4688C211.822 18.4688 212.035 18.5495 212.181 18.7109C212.327 18.8724 212.4 19.0703 212.4 19.3047C212.4 19.5391 212.327 19.7344 212.181 19.8906C212.035 20.0469 211.822 20.125 211.541 20.125C211.259 20.125 211.046 20.0469 210.9 19.8906C210.759 19.7344 210.689 19.5391 210.689 19.3047ZM216.089 21.5469L216.136 22.6094C216.782 21.7969 217.626 21.3906 218.667 21.3906C220.454 21.3906 221.355 22.3984 221.37 24.4141V30H219.925V24.4062C219.92 23.7969 219.779 23.3464 219.503 23.0547C219.232 22.763 218.808 22.6172 218.23 22.6172C217.761 22.6172 217.349 22.7422 216.995 22.9922C216.641 23.2422 216.365 23.5703 216.167 23.9766V30H214.722V21.5469H216.089ZM223.356 25.7031C223.356 24.3854 223.661 23.3385 224.27 22.5625C224.88 21.7812 225.687 21.3906 226.692 21.3906C227.723 21.3906 228.528 21.7552 229.106 22.4844L229.177 21.5469H230.497V29.7969C230.497 30.8906 230.171 31.7526 229.52 32.3828C228.874 33.013 228.005 33.3281 226.911 33.3281C226.302 33.3281 225.705 33.1979 225.122 32.9375C224.539 32.6771 224.093 32.3203 223.786 31.8672L224.536 31C225.156 31.7656 225.914 32.1484 226.809 32.1484C227.512 32.1484 228.059 31.9505 228.45 31.5547C228.846 31.1589 229.044 30.6016 229.044 29.8828V29.1562C228.466 29.8229 227.677 30.1562 226.677 30.1562C225.687 30.1562 224.885 29.7578 224.27 28.9609C223.661 28.1641 223.356 27.0781 223.356 25.7031ZM224.809 25.8672C224.809 26.8203 225.005 27.5703 225.395 28.1172C225.786 28.6589 226.333 28.9297 227.036 28.9297C227.947 28.9297 228.617 28.5156 229.044 27.6875V23.8281C228.601 23.0208 227.937 22.6172 227.052 22.6172C226.348 22.6172 225.799 22.8906 225.403 23.4375C225.007 23.9844 224.809 24.7943 224.809 25.8672ZM241.875 27.7578C241.875 27.3672 241.727 27.0651 241.43 26.8516C241.138 26.6328 240.625 26.4453 239.891 26.2891C239.161 26.1328 238.581 25.9453 238.148 25.7266C237.721 25.5078 237.404 25.2474 237.195 24.9453C236.992 24.6432 236.891 24.2839 236.891 23.8672C236.891 23.1745 237.182 22.5885 237.766 22.1094C238.354 21.6302 239.104 21.3906 240.016 21.3906C240.974 21.3906 241.75 21.638 242.344 22.1328C242.943 22.6276 243.242 23.2604 243.242 24.0312H241.789C241.789 23.6354 241.62 23.2943 241.281 23.0078C240.948 22.7214 240.526 22.5781 240.016 22.5781C239.49 22.5781 239.078 22.6927 238.781 22.9219C238.484 23.151 238.336 23.4505 238.336 23.8203C238.336 24.1693 238.474 24.4323 238.75 24.6094C239.026 24.7865 239.523 24.9557 240.242 25.1172C240.966 25.2786 241.552 25.4714 242 25.6953C242.448 25.9193 242.779 26.1901 242.992 26.5078C243.211 26.8203 243.32 27.2031 243.32 27.6562C243.32 28.4115 243.018 29.0182 242.414 29.4766C241.81 29.9297 241.026 30.1562 240.062 30.1562C239.385 30.1562 238.786 30.0365 238.266 29.7969C237.745 29.5573 237.336 29.224 237.039 28.7969C236.747 28.3646 236.602 27.8984 236.602 27.3984H238.047C238.073 27.8828 238.266 28.2682 238.625 28.5547C238.99 28.8359 239.469 28.9766 240.062 28.9766C240.609 28.9766 241.047 28.8672 241.375 28.6484C241.708 28.4245 241.875 28.1276 241.875 27.7578ZM248.861 30.1562C247.715 30.1562 246.783 29.7812 246.064 29.0312C245.345 28.276 244.986 27.2682 244.986 26.0078V25.7422C244.986 24.9036 245.145 24.1562 245.462 23.5C245.785 22.8385 246.233 22.3229 246.806 21.9531C247.384 21.5781 248.009 21.3906 248.681 21.3906C249.78 21.3906 250.634 21.7526 251.244 22.4766C251.853 23.2005 252.158 24.237 252.158 25.5859V26.1875H246.431C246.452 27.0208 246.694 27.6953 247.158 28.2109C247.627 28.7214 248.22 28.9766 248.939 28.9766C249.449 28.9766 249.882 28.8724 250.236 28.6641C250.59 28.4557 250.9 28.1797 251.166 27.8359L252.048 28.5234C251.34 29.612 250.278 30.1562 248.861 30.1562ZM248.681 22.5781C248.098 22.5781 247.608 22.7917 247.212 23.2188C246.817 23.6406 246.572 24.2344 246.478 25H250.712V24.8906C250.671 24.1562 250.473 23.5885 250.119 23.1875C249.765 22.7812 249.285 22.5781 248.681 22.5781ZM258.073 22.8438C257.855 22.8073 257.618 22.7891 257.363 22.7891C256.415 22.7891 255.771 23.1927 255.433 24V30H253.988V21.5469H255.394L255.417 22.5234C255.891 21.7682 256.563 21.3906 257.433 21.3906C257.714 21.3906 257.928 21.4271 258.073 21.5V22.8438ZM262.489 28.0391L264.583 21.5469H266.059L263.028 30H261.927L258.864 21.5469H260.341L262.489 28.0391ZM269.17 30H267.725V21.5469H269.17V30ZM267.608 19.3047C267.608 19.0703 267.678 18.8724 267.819 18.7109C267.965 18.5495 268.178 18.4688 268.459 18.4688C268.741 18.4688 268.954 18.5495 269.1 18.7109C269.246 18.8724 269.319 19.0703 269.319 19.3047C269.319 19.5391 269.246 19.7344 269.1 19.8906C268.954 20.0469 268.741 20.125 268.459 20.125C268.178 20.125 267.965 20.0469 267.819 19.8906C267.678 19.7344 267.608 19.5391 267.608 19.3047ZM275.031 28.9766C275.547 28.9766 275.997 28.8203 276.383 28.5078C276.768 28.1953 276.982 27.8047 277.023 27.3359H278.391C278.365 27.8203 278.198 28.2812 277.891 28.7188C277.583 29.1562 277.172 29.5052 276.656 29.7656C276.146 30.026 275.604 30.1562 275.031 30.1562C273.88 30.1562 272.964 29.7734 272.281 29.0078C271.604 28.237 271.266 27.1849 271.266 25.8516V25.6094C271.266 24.7865 271.417 24.0547 271.719 23.4141C272.021 22.7734 272.453 22.276 273.016 21.9219C273.583 21.5677 274.253 21.3906 275.023 21.3906C275.971 21.3906 276.758 21.6745 277.383 22.2422C278.013 22.8099 278.349 23.5469 278.391 24.4531H277.023C276.982 23.9062 276.773 23.4583 276.398 23.1094C276.029 22.7552 275.57 22.5781 275.023 22.5781C274.289 22.5781 273.719 22.8438 273.312 23.375C272.911 23.901 272.711 24.6641 272.711 25.6641V25.9375C272.711 26.9115 272.911 27.6615 273.312 28.1875C273.714 28.7135 274.286 28.9766 275.031 28.9766ZM283.673 30.1562C282.528 30.1562 281.595 29.7812 280.877 29.0312C280.158 28.276 279.798 27.2682 279.798 26.0078V25.7422C279.798 24.9036 279.957 24.1562 280.275 23.5C280.598 22.8385 281.046 22.3229 281.619 21.9531C282.197 21.5781 282.822 21.3906 283.494 21.3906C284.593 21.3906 285.447 21.7526 286.056 22.4766C286.666 23.2005 286.97 24.237 286.97 25.5859V26.1875H281.244C281.265 27.0208 281.507 27.6953 281.97 28.2109C282.439 28.7214 283.033 28.9766 283.752 28.9766C284.262 28.9766 284.694 28.8724 285.048 28.6641C285.403 28.4557 285.712 28.1797 285.978 27.8359L286.861 28.5234C286.153 29.612 285.09 30.1562 283.673 30.1562ZM283.494 22.5781C282.91 22.5781 282.421 22.7917 282.025 23.2188C281.629 23.6406 281.384 24.2344 281.291 25H285.525V24.8906C285.483 24.1562 285.285 23.5885 284.931 23.1875C284.577 22.7812 284.098 22.5781 283.494 22.5781ZM288.745 25.3828C288.745 24.2057 288.902 23.0755 289.214 21.9922C289.532 20.9089 290.003 19.9245 290.628 19.0391C291.253 18.1536 291.902 17.5286 292.573 17.1641L292.87 18.1172C292.11 18.7005 291.485 19.5911 290.995 20.7891C290.511 21.987 290.245 23.3281 290.198 24.8125L290.191 25.4766C290.191 27.487 290.558 29.2318 291.292 30.7109C291.735 31.5964 292.261 32.2891 292.87 32.7891L292.573 33.6719C291.881 33.2865 291.219 32.6406 290.589 31.7344C289.36 29.9635 288.745 27.8464 288.745 25.3828ZM299.341 27.7578C299.341 27.3672 299.192 27.0651 298.895 26.8516C298.604 26.6328 298.091 26.4453 297.356 26.2891C296.627 26.1328 296.046 25.9453 295.614 25.7266C295.187 25.5078 294.869 25.2474 294.661 24.9453C294.458 24.6432 294.356 24.2839 294.356 23.8672C294.356 23.1745 294.648 22.5885 295.231 22.1094C295.82 21.6302 296.57 21.3906 297.481 21.3906C298.44 21.3906 299.216 21.638 299.809 22.1328C300.408 22.6276 300.708 23.2604 300.708 24.0312H299.255C299.255 23.6354 299.085 23.2943 298.747 23.0078C298.414 22.7214 297.992 22.5781 297.481 22.5781C296.955 22.5781 296.544 22.6927 296.247 22.9219C295.95 23.151 295.802 23.4505 295.802 23.8203C295.802 24.1693 295.94 24.4323 296.216 24.6094C296.492 24.7865 296.989 24.9557 297.708 25.1172C298.432 25.2786 299.018 25.4714 299.466 25.6953C299.914 25.9193 300.244 26.1901 300.458 26.5078C300.677 26.8203 300.786 27.2031 300.786 27.6562C300.786 28.4115 300.484 29.0182 299.88 29.4766C299.276 29.9297 298.492 30.1562 297.528 30.1562C296.851 30.1562 296.252 30.0365 295.731 29.7969C295.21 29.5573 294.802 29.224 294.505 28.7969C294.213 28.3646 294.067 27.8984 294.067 27.3984H295.513C295.539 27.8828 295.731 28.2682 296.091 28.5547C296.455 28.8359 296.934 28.9766 297.528 28.9766C298.075 28.9766 298.513 28.8672 298.841 28.6484C299.174 28.4245 299.341 28.1276 299.341 27.7578ZM306.155 25.4609C306.155 26.6224 306.001 27.737 305.694 28.8047C305.392 29.8672 304.926 30.849 304.295 31.75C303.67 32.651 303.014 33.2917 302.327 33.6719L302.022 32.7891C302.824 32.1745 303.467 31.2214 303.952 29.9297C304.441 28.6328 304.691 27.1953 304.702 25.6172V25.3672C304.702 24.2734 304.587 23.2578 304.358 22.3203C304.129 21.3776 303.808 20.5339 303.397 19.7891C302.991 19.0443 302.532 18.4635 302.022 18.0469L302.327 17.1641C303.014 17.5443 303.668 18.1797 304.288 19.0703C304.913 19.9609 305.379 20.9427 305.686 22.0156C305.998 23.0885 306.155 24.237 306.155 25.4609Z" fill="#959595"/>
</svg>
