<svg width="124" height="26" viewBox="0 0 124 26" fill="none" xmlns="http://www.w3.org/2000/svg">
<path d="M0.39209 1.55142H4.7869V19.8887H0.39209V1.55142ZM6.53016 12.965C6.53016 8.4298 9.22564 5.72381 13.3861 5.72381C17.5465 5.72381 20.2419 8.4298 20.2419 12.965C20.2419 17.5002 17.6051 20.2213 13.3861 20.2213C9.16704 20.2213 6.53016 17.5758 6.53016 12.965ZM15.8325 12.965C15.8325 10.4706 14.8803 9.00427 13.3861 9.00427C11.8918 9.00427 10.9543 10.516 10.9543 12.965C10.9543 15.414 11.8772 16.8955 13.3861 16.8955C14.8949 16.8955 15.8325 15.5047 15.8325 12.9801V12.965ZM21.8973 20.7807H26.1163C26.3171 21.241 26.6566 21.6221 27.0842 21.8673C27.5118 22.1124 28.0047 22.2085 28.4895 22.1412C30.1596 22.1412 31.0385 21.204 31.0385 19.8434V17.3037H30.9506C30.6005 18.0821 30.0323 18.7343 29.3194 19.1762C28.6066 19.6181 27.7817 19.8295 26.9514 19.7829C23.7431 19.7829 21.619 17.2583 21.619 12.9197C21.619 8.58098 23.6406 5.84474 27.0099 5.84474C27.8663 5.8101 28.7125 6.04637 29.4352 6.5219C30.1578 6.99743 30.7224 7.6895 31.0532 8.50539V8.50539V5.9808H35.448V19.7376C35.448 23.0483 32.6206 25.1042 28.4456 25.1042C24.5635 25.1042 22.1464 23.3053 21.8973 20.7958V20.7807ZM31.0532 12.9499C31.0532 10.7428 30.0717 9.35196 28.5188 9.35196C26.966 9.35196 26.0138 10.7276 26.0138 12.9499C26.0138 15.1721 26.9514 16.4269 28.5188 16.4269C30.0863 16.4269 31.0532 15.2024 31.0532 12.965V12.9499ZM37.1033 12.9499C37.1033 8.41469 39.7988 5.70869 43.9592 5.70869C48.1197 5.70869 50.8298 8.41469 50.8298 12.9499C50.8298 17.4851 48.1929 20.2062 43.9592 20.2062C39.7256 20.2062 37.1033 17.5758 37.1033 12.965V12.9499ZM46.4057 12.9499C46.4057 10.4555 45.4535 8.98915 43.9592 8.98915C42.465 8.98915 41.6007 10.516 41.6007 12.9801C41.6007 15.4443 42.5236 16.9106 44.0178 16.9106C45.5121 16.9106 46.4057 15.5047 46.4057 12.9801V12.9499ZM52.4998 2.68522C52.4883 2.22732 52.6088 1.77621 52.846 1.38906C53.0832 1.00192 53.4265 0.696176 53.8323 0.510595C54.2381 0.325015 54.6882 0.267954 55.1255 0.346645C55.5627 0.425336 55.9675 0.636236 56.2885 0.95261C56.6095 1.26898 56.8322 1.67658 56.9284 2.12374C57.0247 2.57089 56.9901 3.03746 56.8291 3.46431C56.668 3.89115 56.3878 4.25905 56.0239 4.52135C55.66 4.78366 55.2289 4.92857 54.7851 4.9377C54.4909 4.95856 54.1957 4.91641 53.9181 4.81391C53.6404 4.71141 53.3863 4.55077 53.1717 4.34208C52.9571 4.1334 52.7866 3.88117 52.671 3.60124C52.5554 3.32131 52.4971 3.01974 52.4998 2.71545V2.68522ZM52.4998 6.01103H56.8946V19.8887H52.4998V6.01103ZM72.8477 12.9499C72.8477 17.4851 70.8994 20.0702 67.5593 20.0702C66.7029 20.1269 65.8502 19.9108 65.1166 19.4512C64.383 18.9916 63.8038 18.3105 63.4575 17.5002H63.3696V24.3332H58.9748V5.9808H63.3696V8.46004H63.4575C63.7877 7.63632 64.3558 6.93756 65.0845 6.4588C65.8132 5.98004 66.6671 5.74452 67.53 5.78427C70.8994 5.84474 72.9063 8.44493 72.9063 12.9801L72.8477 12.9499ZM68.4529 12.9499C68.4529 10.7428 67.4714 9.33685 65.9333 9.33685C64.3951 9.33685 63.4136 10.7579 63.3989 12.9499C63.3843 15.1419 64.3951 16.5478 65.9333 16.5478C67.4714 16.5478 68.4529 15.1721 68.4529 12.9801V12.9499ZM80.3922 5.69357C84.0398 5.69357 86.2519 7.47742 86.3544 10.3346H82.3552C82.3552 9.35197 81.5641 8.73215 80.3482 8.73215C79.1323 8.73215 78.5903 9.21591 78.5903 9.92642C78.5903 10.6369 79.0737 10.8637 80.0552 11.0753L82.8679 11.6649C85.5487 12.2545 86.6914 13.3732 86.6914 15.4745C86.6914 18.3468 84.157 20.1911 80.4215 20.1911C76.6859 20.1911 74.2394 18.3468 74.049 15.5198H78.2827C78.4145 16.5478 79.2056 17.1525 80.4947 17.1525C81.7838 17.1525 82.3698 16.7141 82.3698 15.9885C82.3698 15.2628 81.9596 15.1117 80.9049 14.8849L78.3705 14.3256C75.7483 13.7662 74.3713 12.3301 74.3713 10.2137C74.4006 7.49253 76.7591 5.72381 80.3922 5.72381V5.69357ZM101.355 19.8585H97.1217V17.2735H97.0338C96.8011 18.1414 96.2877 18.901 95.5789 19.4263C94.87 19.9515 94.0084 20.2107 93.1371 20.1609C92.4694 20.2 91.8013 20.0908 91.178 19.8407C90.5547 19.5905 89.9907 19.2052 89.5241 18.7108C89.0575 18.2164 88.6991 17.6244 88.4733 16.9748C88.2474 16.3252 88.1593 15.6331 88.2149 14.9454V5.9808H92.6097V13.9023C92.6097 15.5501 93.4301 16.4269 94.7925 16.4269C95.1119 16.4276 95.4279 16.3577 95.719 16.2221C96.0102 16.0865 96.27 15.8882 96.4808 15.6406C96.6917 15.3929 96.8488 15.1016 96.9416 14.7862C97.0345 14.4707 97.0609 14.1384 97.0192 13.8116V5.9808H101.414L101.355 19.8585ZM103.48 5.9808H107.728V8.65657H107.816C108.049 7.80014 108.551 7.04769 109.243 6.517C109.934 5.98632 110.777 5.70736 111.639 5.72381C112.516 5.65134 113.387 5.92216 114.079 6.48238C114.772 7.04261 115.234 7.85119 115.375 8.74727H115.463C115.728 7.84166 116.279 7.05303 117.027 6.50563C117.775 5.95823 118.678 5.68318 119.594 5.72381C120.191 5.70309 120.787 5.81236 121.341 6.04452C121.895 6.27669 122.395 6.62655 122.81 7.07138C123.224 7.51621 123.543 8.04605 123.747 8.62648C123.95 9.20691 124.032 9.82494 123.989 10.4404V19.8887H119.594V11.6498C119.594 10.1381 118.935 9.44267 117.704 9.44267C117.43 9.44027 117.158 9.49864 116.907 9.61382C116.657 9.72901 116.433 9.89834 116.251 10.1104C116.069 10.3224 115.933 10.5723 115.853 10.8431C115.773 11.1138 115.749 11.3992 115.785 11.68V19.8887H111.61V11.5893C111.61 10.1985 110.951 9.44267 109.749 9.44267C109.472 9.44276 109.198 9.50357 108.944 9.62109C108.691 9.73861 108.465 9.91017 108.281 10.1245C108.097 10.3387 107.959 10.5909 107.876 10.8642C107.794 11.1376 107.768 11.4259 107.801 11.7103V19.8887H103.406L103.48 5.9808Z" fill="white"/>
</svg>
